<svg width="160" height="160" viewBox="0 0 160 160" fill="none" xmlns="http://www.w3.org/2000/svg">
<path d="M80 133.333C83.6819 133.333 86.6667 130.349 86.6667 126.667C86.6667 122.985 83.6819 120 80 120C76.3181 120 73.3333 122.985 73.3333 126.667C73.3333 130.349 76.3181 133.333 80 133.333Z" fill="#C7C7C7"/>
<path d="M82.9334 73.333L70.2668 60.733L53.8668 44.4663L43.5334 34.133L31.4001 21.933C30.7785 21.3114 30.0406 20.8183 29.2284 20.4819C28.4163 20.1455 27.5458 19.9724 26.6668 19.9724C25.7877 19.9724 24.9172 20.1455 24.1051 20.4819C23.293 20.8183 22.555 21.3114 21.9334 21.933C20.6781 23.1884 19.9728 24.891 19.9728 26.6663C19.9728 28.4417 20.6781 30.1443 21.9334 31.3997L31.1334 40.533L40.8668 50.2663L55.7334 65.1997L66.0668 75.4663L84.3334 93.733L102.933 112.4L128.6 138.066C129.22 138.691 129.957 139.187 130.77 139.526C131.582 139.864 132.453 140.038 133.333 140.038C134.214 140.038 135.085 139.864 135.897 139.526C136.71 139.187 137.447 138.691 138.067 138.066C138.692 137.447 139.188 136.709 139.526 135.897C139.864 135.084 140.039 134.213 140.039 133.333C140.039 132.453 139.864 131.582 139.526 130.769C139.188 129.957 138.692 129.219 138.067 128.6L82.9334 73.333ZM144.8 52.8663C127.436 36.0274 104.188 26.6276 80.0001 26.6663C69.9365 26.6936 59.9426 28.3368 50.4001 31.533L61.2001 42.333C74.2787 39.0651 87.9747 39.1866 100.993 42.6863C114.012 46.1859 125.923 52.9479 135.6 62.333C136.836 63.5242 138.484 64.1928 140.2 64.1997C141.098 64.1962 141.986 64.0114 142.811 63.6563C143.636 63.3011 144.38 62.783 145 62.133C146.175 60.8641 146.811 59.1883 146.774 57.4592C146.737 55.7302 146.029 54.0833 144.8 52.8663ZM25.4668 44.333C21.8496 46.9344 18.419 49.7858 15.2001 52.8663C14.075 54.1174 13.4646 55.7475 13.4912 57.4299C13.5179 59.1122 14.1797 60.7222 15.3438 61.937C16.5079 63.1517 18.0884 63.8814 19.768 63.9796C21.4477 64.0777 23.1023 63.5372 24.4001 62.4663C27.7248 59.3245 31.2913 56.449 35.0668 53.8663L25.4668 44.333ZM113.333 87.5997C113.951 88.2296 114.687 88.7307 115.5 89.074C116.312 89.4174 117.185 89.596 118.067 89.5997C119.37 89.5947 120.642 89.2082 121.728 88.4877C122.813 87.7673 123.664 86.7446 124.175 85.546C124.685 84.3475 124.834 83.0255 124.601 81.7436C124.369 80.4617 123.766 79.276 122.867 78.333C117.306 72.5714 110.649 67.9811 103.287 64.8325C95.9249 61.6838 88.0071 60.0406 80.0001 59.9997H78.9334L94.6001 75.6663C101.714 78.0784 108.14 82.1722 113.333 87.5997ZM49.5334 68.3997C44.8748 71.1131 40.6125 74.4556 36.8668 78.333C35.6379 79.6326 34.9757 81.3671 35.0257 83.1549C35.0757 84.9428 35.8339 86.6375 37.1334 87.8663C38.433 89.0952 40.1675 89.7574 41.9553 89.7074C43.7432 89.6574 45.4379 88.8992 46.6668 87.5997C50.5506 83.7384 55.0584 80.5605 60.0001 78.1997L49.5334 68.3997ZM56.8668 102.666C55.5937 103.895 54.861 105.579 54.8297 107.348C54.8142 108.224 54.9715 109.095 55.2924 109.91C55.6133 110.725 56.0916 111.469 56.7001 112.1C57.3086 112.73 58.0352 113.234 58.8386 113.584C59.6419 113.933 60.5063 114.121 61.3822 114.137C63.1513 114.168 64.8604 113.495 66.1334 112.266C69.5655 109.101 73.9796 107.209 78.6386 106.905C83.2977 106.602 87.9199 107.906 91.7334 110.6L74.9334 93.7997C68.1415 94.8232 61.8316 97.92 56.8668 102.666Z" fill="#C7C7C7"/>
</svg>
