<svg width="20" height="20" viewBox="0 0 20 20" fill="none" xmlns="http://www.w3.org/2000/svg">
<path d="M10 0.587891C7.05882 0.587891 4.70588 2.94083 4.70588 5.88201V8.23495C3.70588 8.23495 2.94118 8.99966 2.94118 9.99966V17.6467C2.94118 18.6467 3.70588 19.4114 4.70588 19.4114H15.2941C16.2941 19.4114 17.0588 18.6467 17.0588 17.6467V9.99966C17.0588 8.99966 16.2941 8.23495 15.2941 8.23495V5.88201C15.2941 2.94083 12.9412 0.587891 10 0.587891ZM15.8824 9.99966V17.6467C15.8824 17.9997 15.6471 18.235 15.2941 18.235H4.70588C4.35294 18.235 4.11765 17.9997 4.11765 17.6467V9.99966C4.11765 9.64671 4.35294 9.41142 4.70588 9.41142H5.29412H14.7059H15.2941C15.6471 9.41142 15.8824 9.64671 15.8824 9.99966ZM5.88235 8.23495V5.88201C5.88235 3.58789 7.70588 1.76436 10 1.76436C12.2941 1.76436 14.1176 3.58789 14.1176 5.88201V8.23495H5.88235Z" fill="#8A19D6"/>
<path d="M10 11.1758C9 11.1758 8.2353 11.9405 8.2353 12.9405C8.2353 13.7052 8.70589 14.3523 9.41177 14.5875V15.8817C9.41177 16.2346 9.64706 16.4699 10 16.4699C10.3529 16.4699 10.5882 16.2346 10.5882 15.8817V14.5875C11.2941 14.3523 11.7647 13.7052 11.7647 12.9405C11.7647 11.9405 11 11.1758 10 11.1758ZM10 13.5287C9.64706 13.5287 9.41177 13.2934 9.41177 12.9405C9.41177 12.5875 9.64706 12.3523 10 12.3523C10.3529 12.3523 10.5882 12.5875 10.5882 12.9405C10.5882 13.2934 10.3529 13.5287 10 13.5287Z" fill="#8A19D6"/>
</svg>
