<svg width="32" height="32" viewBox="0 0 32 32" fill="none" xmlns="http://www.w3.org/2000/svg">
<rect x="0.5" y="0.5" width="31" height="31" rx="15.5" fill="#8A19D6"/>
<rect x="0.5" y="0.5" width="31" height="31" rx="15.5" stroke="#8A19D6"/>
<path d="M21.5 15.5001H11.5252L15.3447 11.8621C15.5447 11.6716 15.5525 11.3551 15.362 11.1551C15.1718 10.9554 14.8553 10.9474 14.655 11.1379L10.293 15.2929C10.1042 15.4819 10 15.7329 10 16.0001C10 16.2671 10.1042 16.5184 10.3017 16.7156L14.6553 20.8621C14.752 20.9544 14.876 21.0001 15 21.0001C15.132 21.0001 15.264 20.9481 15.3622 20.8449C15.5527 20.6449 15.545 20.3286 15.345 20.1381L11.5095 16.5001H21.5C21.776 16.5001 22 16.2761 22 16.0001C22 15.7241 21.776 15.5001 21.5 15.5001Z" fill="#F8FAFC"/>
</svg>
