<svg width="32" height="32" viewBox="0 0 32 32" fill="none" xmlns="http://www.w3.org/2000/svg">
<rect x="31.5" y="31.5" width="31" height="31" rx="15.5" transform="rotate(-180 31.5 31.5)" fill="#8A19D6"/>
<rect x="31.5" y="31.5" width="31" height="31" rx="15.5" transform="rotate(-180 31.5 31.5)" stroke="#8A19D6"/>
<path d="M10.5 16.4999H20.4748L16.6553 20.1379C16.4553 20.3284 16.4475 20.6449 16.638 20.8449C16.8282 21.0446 17.1447 21.0526 17.345 20.8621L21.707 16.7071C21.8958 16.5181 22 16.2671 22 15.9999C22 15.7329 21.8958 15.4816 21.6983 15.2844L17.3447 11.1379C17.248 11.0456 17.124 10.9999 17 10.9999C16.868 10.9999 16.736 11.0519 16.6378 11.1551C16.4473 11.3551 16.455 11.6714 16.655 11.8619L20.4905 15.4999L10.5 15.4999C10.224 15.4999 10 15.7239 10 15.9999C10 16.2759 10.224 16.4999 10.5 16.4999Z" fill="#F8FAFC"/>
</svg>
