<svg width="67" height="67" viewBox="0 0 67 67" fill="none" xmlns="http://www.w3.org/2000/svg">
<path d="M33.3333 0C15 0 0 15 0 33.3333C0 51.6667 15 66.6667 33.3333 66.6667C51.6667 66.6667 66.6667 51.6667 66.6667 33.3333C66.6667 15 51.6667 0 33.3333 0ZM28.0809 48.5858C27.2998 49.3668 26.0335 49.3668 25.2525 48.5858L12.3516 35.685C11.0529 34.3862 11.0529 32.2805 12.3516 30.9817C13.6491 29.6842 15.7523 29.6827 17.0516 30.9784L25.9596 39.8615C26.3502 40.2511 26.9827 40.2507 27.3728 39.8605L49.6 17.6334C50.9057 16.3276 53.0239 16.3314 54.325 17.6417C55.6196 18.9455 55.6159 21.0508 54.3167 22.35L28.0809 48.5858Z" fill="#8A19D6"/>
</svg>
