<svg width="25" height="20" viewBox="0 0 25 20" fill="none" xmlns="http://www.w3.org/2000/svg">
<path fill-rule="evenodd" clip-rule="evenodd" d="M6.3219 1.18691C10.301 0.841016 14.3027 0.841016 18.2818 1.18691L20.1899 1.35371C21.0769 1.43094 21.9122 1.8045 22.5611 2.41422C23.21 3.02394 23.6348 3.83433 23.7671 4.71488C24.3401 8.52637 24.3401 12.4021 23.7671 16.2136C23.7166 16.5472 23.6256 16.8669 23.4992 17.1664C23.4158 17.3647 23.1581 17.3951 23.0115 17.2359L17.4251 11.0897C17.3016 10.9538 17.1412 10.8568 16.9636 10.8104C16.7859 10.7639 16.5986 10.7701 16.4244 10.8282L13.2262 11.8946L8.58753 6.67598C8.50172 6.57944 8.3971 6.50146 8.28006 6.44682C8.16303 6.39219 8.03606 6.36205 7.90696 6.35827C7.77786 6.35448 7.64935 6.37712 7.52931 6.4248C7.40928 6.47248 7.30026 6.5442 7.20894 6.63554L0.99963 12.8449C0.957447 12.8882 0.903529 12.9183 0.844486 12.9315C0.785444 12.9447 0.723843 12.9403 0.667235 12.919C0.610627 12.8976 0.561472 12.8603 0.525797 12.8114C0.490122 12.7626 0.469477 12.7044 0.466392 12.6439C0.316971 9.99484 0.440613 7.3374 0.835363 4.71361C0.967642 3.83307 1.39245 3.02268 2.04137 2.41296C2.69028 1.80324 3.52554 1.42968 4.4126 1.35245L6.3219 1.18691ZM14.8284 6.67345C14.8284 6.17076 15.0281 5.68866 15.3836 5.3332C15.739 4.97775 16.2211 4.77806 16.7238 4.77806C17.2265 4.77806 17.7086 4.97775 18.0641 5.3332C18.4195 5.68866 18.6192 6.17076 18.6192 6.67345C18.6192 7.17614 18.4195 7.65824 18.0641 8.0137C17.7086 8.36915 17.2265 8.56885 16.7238 8.56885C16.2211 8.56885 15.739 8.36915 15.3836 8.0137C15.0281 7.65824 14.8284 7.17614 14.8284 6.67345Z" fill="#C7C7C7"/>
<path d="M0.879566 15.6451C0.84536 15.6795 0.819576 15.7213 0.804232 15.7674C0.788888 15.8134 0.784398 15.8624 0.791115 15.9104L0.835341 16.2137C0.96762 17.0942 1.39243 17.9046 2.04134 18.5143C2.69026 19.1241 3.52551 19.4976 4.41258 19.5748L6.32061 19.7404C10.3009 20.0866 14.3015 20.0866 18.2818 19.7404L20.1898 19.5748C20.7131 19.5296 21.2222 19.3805 21.6872 19.1364C21.8603 19.0467 21.8894 18.818 21.758 18.6739L16.5772 12.9751C16.5361 12.9293 16.4825 12.8966 16.423 12.8809C16.3635 12.8652 16.3007 12.8672 16.2424 12.8866L13.2325 13.8899C13.0565 13.9487 12.8672 13.9545 12.6879 13.9067C12.5087 13.8588 12.3474 13.7594 12.2241 13.6208L8.06059 8.93663C8.03192 8.90444 7.99697 8.87846 7.95789 8.86028C7.91881 8.8421 7.87643 8.83211 7.83334 8.83093C7.79026 8.82975 7.74738 8.83739 7.70736 8.8534C7.66734 8.8694 7.63102 8.89343 7.60064 8.92399L0.879566 15.6451Z" fill="#C7C7C7"/>
</svg>
