<svg width="328" height="270" viewBox="0 0 328 270" fill="none" xmlns="http://www.w3.org/2000/svg">
<path d="M126.606 30.776H133.774V35H121.134V12.536H126.606V30.776ZM144.512 35.256C142.763 35.256 141.184 34.8827 139.776 34.136C138.39 33.3893 137.291 32.3227 136.48 30.936C135.691 29.5493 135.296 27.928 135.296 26.072C135.296 24.2373 135.702 22.6267 136.512 21.24C137.323 19.832 138.432 18.7547 139.84 18.008C141.248 17.2613 142.827 16.888 144.576 16.888C146.326 16.888 147.904 17.2613 149.312 18.008C150.72 18.7547 151.83 19.832 152.64 21.24C153.451 22.6267 153.856 24.2373 153.856 26.072C153.856 27.9067 153.44 29.528 152.608 30.936C151.798 32.3227 150.678 33.3893 149.248 34.136C147.84 34.8827 146.262 35.256 144.512 35.256ZM144.512 30.52C145.558 30.52 146.443 30.136 147.168 29.368C147.915 28.6 148.288 27.5013 148.288 26.072C148.288 24.6427 147.926 23.544 147.2 22.776C146.496 22.008 145.622 21.624 144.576 21.624C143.51 21.624 142.624 22.008 141.92 22.776C141.216 23.5227 140.864 24.6213 140.864 26.072C140.864 27.5013 141.206 28.6 141.888 29.368C142.592 30.136 143.467 30.52 144.512 30.52ZM163.543 16.888C164.802 16.888 165.901 17.144 166.839 17.656C167.799 18.168 168.535 18.84 169.047 19.672V17.144H174.519V34.968C174.519 36.6107 174.189 38.0933 173.527 39.416C172.887 40.76 171.895 41.8267 170.551 42.616C169.229 43.4053 167.575 43.8 165.591 43.8C162.946 43.8 160.802 43.1707 159.159 41.912C157.517 40.6747 156.578 38.9893 156.343 36.856H161.751C161.922 37.5387 162.327 38.072 162.967 38.456C163.607 38.8613 164.397 39.064 165.335 39.064C166.466 39.064 167.362 38.7333 168.023 38.072C168.706 37.432 169.047 36.3973 169.047 34.968V32.44C168.514 33.272 167.778 33.9547 166.839 34.488C165.901 35 164.802 35.256 163.543 35.256C162.071 35.256 160.738 34.8827 159.543 34.136C158.349 33.368 157.399 32.2907 156.695 30.904C156.013 29.496 155.671 27.8747 155.671 26.04C155.671 24.2053 156.013 22.5947 156.695 21.208C157.399 19.8213 158.349 18.7547 159.543 18.008C160.738 17.2613 162.071 16.888 163.543 16.888ZM169.047 26.072C169.047 24.7067 168.663 23.6293 167.895 22.84C167.149 22.0507 166.231 21.656 165.143 21.656C164.055 21.656 163.127 22.0507 162.359 22.84C161.613 23.608 161.239 24.6747 161.239 26.04C161.239 27.4053 161.613 28.4933 162.359 29.304C163.127 30.0933 164.055 30.488 165.143 30.488C166.231 30.488 167.149 30.0933 167.895 29.304C168.663 28.5147 169.047 27.4373 169.047 26.072ZM181.23 15.288C180.27 15.288 179.481 15.0107 178.862 14.456C178.265 13.88 177.966 13.176 177.966 12.344C177.966 11.4907 178.265 10.7867 178.862 10.232C179.481 9.656 180.27 9.368 181.23 9.368C182.169 9.368 182.937 9.656 183.534 10.232C184.153 10.7867 184.462 11.4907 184.462 12.344C184.462 13.176 184.153 13.88 183.534 14.456C182.937 15.0107 182.169 15.288 181.23 15.288ZM183.95 17.144V35H178.478V17.144H183.95ZM198.796 16.952C200.886 16.952 202.55 17.6347 203.788 19C205.046 20.344 205.676 22.2 205.676 24.568V35H200.236V25.304C200.236 24.1093 199.926 23.1813 199.308 22.52C198.689 21.8587 197.857 21.528 196.812 21.528C195.766 21.528 194.934 21.8587 194.316 22.52C193.697 23.1813 193.388 24.1093 193.388 25.304V35H187.916V17.144H193.388V19.512C193.942 18.7227 194.689 18.104 195.628 17.656C196.566 17.1867 197.622 16.952 198.796 16.952Z" fill="#F59245"/>
<path d="M90.2294 82.6779C108.898 64.0116 130.787 63.9137 163.865 64.0116C196.773 64.1089 218.343 64.0116 236.997 82.6779C290.796 136.513 216.319 258.222 163.865 258.222C111.412 258.222 36.4272 136.474 90.2294 82.6779Z" fill="#F59245"/>
<path d="M129.907 134.094C133.69 140.47 134.381 150.047 127.552 152.931C121.989 155.281 116.207 153.359 113.21 147.152C110.213 140.944 109.785 128.528 114.922 126.602C120.06 124.675 126.568 128.468 129.907 134.094Z" fill="white"/>
<path d="M157.754 118.187C157.967 122.682 154.408 133.842 146.837 134.242C138.973 134.656 133.779 125.679 134.636 118.187C135.492 110.695 138.568 100.424 146.837 100.848C154.828 101.258 157.541 113.692 157.754 118.187Z" fill="white"/>
<path d="M179.16 134.242C171.77 134.339 167.815 124.609 167.815 119.043C167.815 113.478 170.816 101.518 179.16 101.276C188.002 101.02 191.148 114.976 190.72 120.756C190.291 126.535 186.096 134.15 179.16 134.242Z" fill="white"/>
<path d="M198.64 153.079C204.075 155.64 209.268 152.236 212.982 147.513C218.193 140.887 215.979 127.82 210.199 126.107C204.419 124.395 196.035 130.339 194.145 137.881C192.64 143.884 193.041 150.441 198.64 153.079Z" fill="white"/>
<path d="M162.422 141.96C142.729 142.816 128.601 166.149 123.463 175.354C118.326 184.559 125.001 199.485 135.879 200.399C141.633 200.883 143.805 194.924 149.579 194.833C155.586 194.739 157.913 200.461 163.921 200.399C169.773 200.339 171.983 194.864 177.835 194.833C183.765 194.802 184.685 200.399 191.963 200.399C199.241 200.399 210.158 188.625 203.522 175.354C196.886 162.083 182.116 141.105 162.422 141.96Z" fill="white"/>
<path fill-rule="evenodd" clip-rule="evenodd" d="M163.65 158.19C162.037 158.19 160.73 159.498 160.73 161.111V168.413H153.428C151.815 168.413 150.508 169.72 150.508 171.333C150.508 172.946 151.815 174.254 153.428 174.254H160.73V180.825C160.73 182.438 162.037 183.746 163.65 183.746C165.263 183.746 166.571 182.438 166.571 180.825V174.254H172.412C174.025 174.254 175.333 172.946 175.333 171.333C175.333 169.72 174.025 168.413 172.412 168.413H166.571V161.111C166.571 159.498 165.263 158.19 163.65 158.19Z" fill="#F59245"/>
</svg>
