<svg width="184" height="193" viewBox="0 0 184 193" fill="none" xmlns="http://www.w3.org/2000/svg">
<path d="M19.213 18.5136C37.7204 0.0114689 59.4202 -0.0855349 92.213 0.0114703C124.836 0.107974 146.22 0.0114708 164.713 18.5136C218.048 71.8749 144.213 192.514 92.213 192.514C40.2127 192.514 -34.1246 71.8359 19.213 18.5136Z" fill="white"/>
<path d="M58.5382 69.4772C62.2881 75.7969 62.9736 85.2895 56.2042 88.1488C50.6904 90.4778 44.9588 88.5732 41.9883 82.4201C39.0178 76.2669 38.5934 63.9606 43.6857 62.051C48.778 60.1414 55.2289 63.9003 58.5382 69.4772Z" fill="#F59245"/>
<path d="M86.1405 53.7105C86.3514 58.1662 82.8243 69.228 75.3195 69.6238C67.5247 70.0349 62.3766 61.1367 63.2253 53.7105C64.0741 46.2843 67.1233 36.1034 75.3195 36.5241C83.2403 36.9307 85.9296 49.2548 86.1405 53.7105Z" fill="#F59245"/>
<path d="M107.358 69.6238C100.033 69.7203 96.1129 60.0758 96.1129 54.5592C96.1129 49.0426 99.0874 37.1879 107.358 36.9484C116.123 36.6947 119.24 50.5278 118.816 56.2566C118.392 61.9854 114.233 69.5332 107.358 69.6238Z" fill="#F59245"/>
<path d="M126.667 88.2954C132.053 90.8338 137.201 87.4595 140.882 82.7788C146.048 76.211 143.853 63.2585 138.124 61.561C132.395 59.8636 124.084 65.7556 122.211 73.2308C120.719 79.1818 121.117 85.6803 126.667 88.2954Z" fill="#F59245"/>
<path d="M90.7678 77.2747C71.2476 78.1229 57.2438 101.25 52.1515 110.374C47.0592 119.498 53.6753 134.293 64.4578 135.199C70.1617 135.678 72.3139 129.772 78.0372 129.683C83.9915 129.589 86.2984 135.261 92.2531 135.199C98.0536 135.139 100.244 129.713 106.045 129.683C111.922 129.652 112.834 135.199 120.048 135.199C127.262 135.199 138.083 123.529 131.506 110.374C124.928 97.2198 110.288 76.4264 90.7678 77.2747Z" fill="#F59245"/>
<path fill-rule="evenodd" clip-rule="evenodd" d="M91.7944 93.5115C90.1376 93.5115 88.7944 94.8546 88.7944 96.5115V103.511H81.7944C80.1376 103.511 78.7944 104.855 78.7944 106.511C78.7944 108.168 80.1376 109.511 81.7944 109.511H88.7944V115.511C88.7944 117.168 90.1376 118.511 91.7944 118.511C93.4513 118.511 94.7944 117.168 94.7944 115.511V109.511H100.794C102.451 109.511 103.794 108.168 103.794 106.511C103.794 104.855 102.451 103.511 100.794 103.511H94.7944V96.5115C94.7944 94.8546 93.4513 93.5115 91.7944 93.5115Z" fill="white"/>
</svg>
