<svg width="17" height="17" viewBox="0 0 17 17" fill="none" xmlns="http://www.w3.org/2000/svg">
<path d="M15.6591 14.3328L15.6582 14.3319L10.7858 9.63121L10.7856 9.63098L9.68126 8.57952L15.6582 2.82755C15.7831 2.7073 15.8848 2.57339 15.9488 2.42551C16.0118 2.27997 16.0501 2.1212 16.0501 1.9613C16.0501 1.79332 16.0253 1.63314 15.9481 1.48379C15.8857 1.34011 15.7976 1.19419 15.6825 1.08335L15.6825 1.0833L15.6805 1.08159C15.5567 0.97432 15.4183 0.877003 15.2654 0.815719C15.112 0.754208 14.9352 0.730273 14.7729 0.730273C14.6076 0.730273 14.4436 0.766997 14.2817 0.826929L14.2817 0.826912L14.2805 0.827412C14.1276 0.888696 13.9887 0.986206 13.8756 1.09505L6.99836 7.71346C6.88368 7.82383 6.79504 7.95817 6.73198 8.10381L6.73197 8.1038L6.73144 8.10512C6.66903 8.26127 6.63066 8.41968 6.63066 8.57971C6.63066 8.73962 6.66897 8.89839 6.73198 9.04393C6.79504 9.18957 6.88368 9.3239 6.99836 9.43427L13.8756 16.0527L13.8756 16.0527L13.8766 16.0536C14.1177 16.2734 14.4339 16.3824 14.7608 16.3824C15.09 16.3824 15.4061 16.2485 15.6339 16.0293C15.8738 15.7984 16.0013 15.5053 16.0015 15.1874C16.014 14.8688 15.8865 14.5638 15.6591 14.3328Z" fill="#181725" stroke="#181725" stroke-width="0.1"/>
<path d="M0.62995 2.77948L0.630866 2.78038L5.50324 7.4811L5.50348 7.48132L6.6078 8.53278L0.63091 14.2848C0.505954 14.405 0.40426 14.5389 0.340234 14.6868C0.277221 14.8323 0.238914 14.9911 0.238914 15.151C0.238914 15.319 0.263747 15.4792 0.340928 15.6285C0.403318 15.7722 0.491442 15.9181 0.606609 16.029L0.606562 16.029L0.608545 16.0307C0.732389 16.138 0.870806 16.2353 1.02364 16.2966C1.17704 16.3581 1.35388 16.382 1.51612 16.382C1.68149 16.382 1.84543 16.3453 2.00735 16.2854L2.00736 16.2854L2.0086 16.2849C2.16143 16.2236 2.30039 16.1261 2.41348 16.0173L9.2907 9.39884C9.40539 9.28848 9.49402 9.15414 9.55708 9.0085L9.5571 9.0085L9.55762 9.00718C9.62003 8.85104 9.6584 8.69262 9.6584 8.53259C9.6584 8.37269 9.62009 8.21392 9.55708 8.06838C9.49402 7.92274 9.40539 7.7884 9.2907 7.67803L2.41348 1.05962L2.4135 1.0596L2.4125 1.05869C2.1714 0.838882 1.85519 0.729922 1.52827 0.729922C1.19903 0.729922 0.882947 0.863836 0.655213 1.083C0.415264 1.31392 0.287782 1.60701 0.287517 1.92487C0.275076 2.24347 0.402602 2.54853 0.62995 2.77948Z" fill="#181725" stroke="#181725" stroke-width="0.1"/>
</svg>
