<svg width="48" height="56" viewBox="0 0 48 56" fill="none" xmlns="http://www.w3.org/2000/svg">
<path fill-rule="evenodd" clip-rule="evenodd" d="M32.6137 4.5767C32.8526 2.44305 31.3399 0.516399 29.2063 0.277558C27.0726 0.0227946 25.146 1.55138 24.9071 3.68502C24.6205 6.1212 25.0186 9.03506 25.5281 12.0285C26.9452 12.4585 28.3146 13.0794 29.5884 13.8119C30.9578 10.5796 32.2953 7.3791 32.6137 4.5767ZM47.597 13.9393C46.7531 11.9648 44.4602 11.0732 42.4858 11.9171C39.8904 13.0476 37.1995 15.2609 34.4926 17.5378C35.5117 18.5409 36.467 19.6715 37.2791 20.8975C40.3522 20.5154 43.2979 20.0536 45.5748 19.0664C47.5493 18.1906 48.4569 15.8978 47.597 13.9393ZM41.0528 3.5258C39.3331 2.25198 36.8969 2.60228 35.6231 4.32193C33.6805 6.93326 32.3749 10.8343 30.9578 14.6399C31.4354 14.9583 31.8813 15.2768 32.3112 15.6112C32.6296 15.8659 32.964 16.1366 33.2984 16.4073C36.5466 13.9552 39.9223 11.5668 41.8648 8.95545C43.1387 7.23579 42.7724 4.79962 41.0528 3.5258Z" fill="#53B175"/>
<path d="M33.6649 34.7025C32.4706 35.9923 31.1968 37.1865 29.8434 38.3488C27.9486 39.9889 26.0219 41.5811 24.0634 43.1097C21.9616 41.82 20.449 41.1672 20.1942 41.5015C19.9713 41.8041 20.847 42.9187 22.4234 44.3676C17.1371 48.3005 11.5482 51.7717 5.5453 54.6219C4.60586 55.0677 3.61865 55.3862 2.64736 55.7365C2.3926 55.832 2.12191 55.832 2.01045 55.8479C0.481868 56.0231 0.0201089 55.6091 0.0837999 54.2079C0.274873 49.845 1.62831 45.7529 3.02951 41.6767C3.41165 40.5621 3.80972 39.4475 4.22371 38.3329C6.34144 39.6226 7.8541 40.2914 8.10886 39.957C8.37955 39.5908 7.10573 38.1259 4.97208 36.2948C6.50066 32.346 8.2044 28.4608 10.2107 24.7349C14.2232 27.7124 17.7899 29.6709 18.188 29.1296C18.586 28.5882 15.6403 25.7062 11.58 22.6968L11.4049 22.5694C12.1055 21.3752 12.8379 20.181 13.6181 19.0186C14.5894 17.5537 15.7836 16.2162 16.9619 14.9106C18.5383 13.175 20.5764 12.5858 22.8533 13.0954C30.1459 14.7195 35.2094 18.9072 37.5978 26.0883C38.0755 27.5532 37.6455 28.9863 36.8972 30.3078C36.3876 31.1995 35.8303 32.0434 35.2094 32.8396C31.3561 30.0212 28.0123 28.206 27.6301 28.7156C27.2639 29.2251 29.923 31.8524 33.6649 34.7025Z" fill="#F3603F"/>
</svg>
