<svg width="268" height="70" viewBox="0 0 268 70" fill="none" xmlns="http://www.w3.org/2000/svg">
<path fill-rule="evenodd" clip-rule="evenodd" d="M37.4908 5.6422C37.7639 3.20276 36.0344 0.99998 33.595 0.726908C31.1555 0.435631 28.9527 2.18329 28.6797 4.62273C28.352 7.40806 28.8071 10.7395 29.3897 14.162C31.0099 14.6536 32.5755 15.3636 34.0319 16.201C35.5975 12.5054 37.1267 8.84624 37.4908 5.6422ZM54.6215 16.3466C53.6566 14.0892 51.0351 13.0697 48.7778 14.0346C45.8104 15.3271 42.7338 17.8576 39.639 20.4609C40.8041 21.6078 41.8963 22.9003 42.8248 24.3021C46.3383 23.8652 49.7062 23.3372 52.3095 22.2085C54.5669 21.2073 55.6045 18.5858 54.6215 16.3466ZM47.1393 4.44068C45.1732 2.9843 42.3879 3.38481 40.9315 5.35092C38.7105 8.33651 37.2177 12.7967 35.5975 17.1476C36.1436 17.5117 36.6534 17.8758 37.1449 18.2581C37.509 18.5494 37.8913 18.8589 38.2736 19.1683C41.9874 16.3648 45.8468 13.6341 48.0678 10.6485C49.5242 8.6824 49.1054 5.89707 47.1393 4.44068Z" fill="white"/>
<path d="M38.6924 40.0856C37.327 41.5602 35.8706 42.9256 34.3232 44.2545C32.1568 46.1296 29.9541 47.9501 27.7149 49.6978C25.3118 48.2232 23.5824 47.4768 23.2911 47.8591C23.0363 48.205 24.0375 49.4793 25.8398 51.1359C19.7958 55.6325 13.4059 59.6012 6.54272 62.8598C5.46864 63.3696 4.33994 63.7337 3.22945 64.1342C2.93817 64.2434 2.62869 64.2434 2.50126 64.2616C0.7536 64.4618 0.225661 63.9885 0.29848 62.3865C0.516938 57.3984 2.06434 52.7198 3.66636 48.0593C4.10328 46.785 4.5584 45.5107 5.03172 44.2363C7.45296 45.7109 9.18241 46.4755 9.47369 46.0932C9.78317 45.6745 8.32679 43.9997 5.88735 41.9061C7.63501 37.3913 9.58292 32.9494 11.8767 28.6895C16.4643 32.0938 20.5422 34.3329 20.9973 33.714C21.4524 33.095 18.0846 29.7999 13.4423 26.3592L13.2421 26.2136C14.0431 24.8482 14.8805 23.4829 15.7725 22.1539C16.883 20.4791 18.2484 18.9499 19.5955 17.4571C21.3978 15.4728 23.728 14.7992 26.3313 15.3818C34.6691 17.2386 40.4582 22.0265 43.1889 30.2369C43.7351 31.9117 43.2436 33.5501 42.3879 35.0611C41.8054 36.0806 41.1682 37.0455 40.4582 37.9557C36.0527 34.7334 32.2297 32.6581 31.7928 33.2407C31.374 33.8232 34.4142 36.827 38.6924 40.0856Z" fill="white"/>
<path d="M92.3962 10.4025C86.6253 10.4025 82.8751 12.7145 80.5995 17.1018H80.4721V14.3711C80.4721 12.405 78.8701 10.8212 76.9039 10.8212C74.9378 10.8212 73.354 12.405 73.354 14.3711V44.5728C73.354 46.539 74.9378 48.141 76.9039 48.141H77.2498C79.2159 48.141 80.818 46.539 80.818 44.5728V26.5865C80.818 20.7064 84.1858 16.7923 89.8111 16.7923C95.2726 16.7923 97.894 19.96 97.894 25.6217V44.5728C97.894 46.539 99.4779 48.141 101.444 48.141H101.79C103.756 48.141 105.34 46.539 105.34 44.5728V24.2199C105.34 15.6272 100.643 10.4025 92.3962 10.4025Z" fill="white"/>
<path d="M128.369 10.3297C117.937 10.3297 111.129 17.9392 111.129 29.6085C111.129 41.296 117.865 48.5779 128.678 48.5779C135.378 48.5779 140.912 45.6105 143.406 40.9865C144.334 39.2935 143.06 37.1999 141.13 37.1999H139.237C138.29 37.1999 137.471 37.746 136.98 38.5653C135.542 41.0411 132.52 42.5339 128.824 42.5339C122.707 42.5339 118.647 38.274 118.647 31.8113V31.3744H142.496C143.916 31.3744 145.081 30.2093 145.081 28.7893V28.7529C145.081 17.4477 138.618 10.3297 128.369 10.3297ZM118.684 26.0768C119.103 20.3423 122.98 16.41 128.351 16.41C133.776 16.41 137.453 20.2695 137.617 26.0768H118.684Z" fill="white"/>
<path d="M179.798 35.5979H177.813C176.739 35.5979 175.811 36.2715 175.41 37.2727C174.118 40.5678 171.169 42.3337 166.981 42.3337C160.992 42.3337 156.951 37.5094 156.951 29.4811C156.951 21.6348 160.937 16.6285 166.945 16.6285C171.278 16.6285 174.172 18.7767 175.356 21.8351C175.756 22.8545 176.685 23.5645 177.795 23.5645H179.779C181.509 23.5645 182.801 21.8715 182.237 20.2331C180.326 14.6078 174.864 10.3297 166.872 10.3297C156.332 10.3297 149.377 17.8664 149.377 29.4811C149.377 41.296 156.35 48.5779 166.945 48.5779C174.536 48.5779 180.18 44.8641 182.255 38.984C182.838 37.3273 181.563 35.5979 179.798 35.5979Z" fill="white"/>
<path d="M202.153 42.279C202.025 42.2608 201.88 42.2426 201.752 42.2426C199.295 41.9514 198.148 40.4222 198.148 37.5458V16.7013H202.353C203.992 16.7013 205.302 15.3724 205.302 13.7521C205.302 12.1319 203.992 10.8212 202.353 10.8212H198.148V6.14255C198.148 5.12308 197.729 4.19464 197.056 3.52106C196.382 2.84748 195.472 2.42877 194.434 2.42877C192.395 2.42877 190.739 4.10361 190.739 6.14255V10.8212H188.518C186.897 10.8212 185.568 12.1319 185.568 13.7521C185.568 15.3724 186.897 16.7013 188.518 16.7013H190.739V38.3104C190.739 45.5195 193.615 48.3776 201.079 48.3776C201.097 48.3776 201.115 48.3776 201.115 48.3776C201.971 48.3776 202.754 48.1228 203.409 47.6677C203.427 47.6677 203.445 47.6495 203.445 47.6495C204.21 47.1033 204.72 46.2113 204.72 45.21C204.72 43.7172 203.609 42.4611 202.153 42.279Z" fill="white"/>
<path d="M226.365 10.3297C220.54 10.3297 215.734 12.6963 213.276 16.3554C212.875 16.9744 212.675 17.648 212.675 18.3033C212.675 20.1238 214.132 21.8169 216.189 21.8169C217.39 21.8169 218.537 21.1797 219.101 20.1238C220.303 17.8664 222.87 16.4829 226.165 16.4829C231.153 16.4829 233.993 18.8313 233.993 23.0912V23.5463C233.993 24.9117 232.937 26.0404 231.572 26.1132L223.926 26.5501C214.714 27.1327 209.671 30.9193 209.671 37.4548C209.671 44.1177 214.823 48.5051 222.287 48.5051C227.366 48.5051 232.009 45.9746 234.066 41.9149H234.23V44.5728C234.23 45.5559 234.63 46.4479 235.267 47.1033C235.923 47.7405 236.815 48.141 237.798 48.141C239.764 48.141 241.348 46.539 241.348 44.5728V22.5451C241.348 15.1539 235.468 10.3297 226.365 10.3297ZM233.993 34.1233C233.993 39.0204 229.806 42.5703 224.272 42.5703C219.975 42.5703 217.19 40.5132 217.19 37.3091C217.19 34.0141 219.848 32.1208 224.927 31.8113L233.993 31.1923V34.1233Z" fill="white"/>
<path d="M265.105 10.4389C260.699 10.4389 257.277 12.9512 256.094 17.1019H255.966V14.3711C255.966 12.405 254.364 10.8212 252.416 10.8212C250.45 10.8212 248.848 12.405 248.848 14.3711V44.409C248.848 45.4285 249.267 46.3751 249.94 47.0487C250.614 47.7223 251.542 48.141 252.58 48.141C254.637 48.141 256.312 46.4662 256.312 44.409V25.8766C256.312 20.6154 259.407 17.2111 264.322 17.2111C264.522 17.2111 264.741 17.2111 264.941 17.2293C266.47 17.2839 267.708 16.0278 267.708 14.4986V13.0604C267.708 11.6222 266.543 10.4389 265.105 10.4389Z" fill="white"/>
<path d="M204.72 45.21C204.72 46.2113 204.21 47.1033 203.445 47.6494C203.445 47.6494 203.427 47.6676 203.409 47.6676C202.936 47.9953 202.371 48.1774 201.752 48.1774C200.096 48.1774 198.767 46.8484 198.767 45.21C198.767 43.5716 200.096 42.2426 201.752 42.2426C201.88 42.2426 202.025 42.2608 202.153 42.279C203.609 42.4611 204.72 43.7172 204.72 45.21Z" fill="white"/>
<path d="M75.61 65.4728C74.938 65.4728 74.3313 65.3188 73.79 65.0108C73.258 64.6935 72.8333 64.2595 72.516 63.7088C72.208 63.1488 72.054 62.5095 72.054 61.7908C72.054 61.0535 72.208 60.4095 72.516 59.8588C72.8333 59.2988 73.2627 58.8648 73.804 58.5568C74.3453 58.2395 74.952 58.0808 75.624 58.0808C76.3053 58.0808 76.912 58.2395 77.444 58.5568C77.9853 58.8648 78.41 59.2988 78.718 59.8588C79.0353 60.4095 79.194 61.0488 79.194 61.7768C79.194 62.5048 79.0353 63.1488 78.718 63.7088C78.41 64.2595 77.9853 64.6935 77.444 65.0108C76.9027 65.3188 76.2913 65.4728 75.61 65.4728ZM75.61 63.8348C75.9273 63.8348 76.2073 63.7601 76.45 63.6108C76.702 63.4615 76.898 63.2328 77.038 62.9248C77.1873 62.6168 77.262 62.2341 77.262 61.7768C77.262 61.3195 77.1873 60.9415 77.038 60.6428C76.898 60.3348 76.702 60.1061 76.45 59.9568C76.2073 59.7981 75.932 59.7188 75.624 59.7188C75.3253 59.7188 75.05 59.7981 74.798 59.9568C74.546 60.1061 74.3453 60.3348 74.196 60.6428C74.056 60.9415 73.986 61.3195 73.986 61.7768C73.986 62.2341 74.056 62.6168 74.196 62.9248C74.3453 63.2328 74.5413 63.4615 74.784 63.6108C75.036 63.7601 75.3113 63.8348 75.61 63.8348ZM86.3229 65.3048V58.2488H87.9889L88.1289 59.3968C88.3436 59.0048 88.6469 58.6875 89.0389 58.4448C89.4403 58.2021 89.9163 58.0808 90.4669 58.0808C91.0549 58.0808 91.5496 58.2021 91.9509 58.4448C92.3523 58.6875 92.6556 59.0421 92.8609 59.5088C93.0756 59.9755 93.1829 60.5495 93.1829 61.2308V65.3048H91.3069V61.4128C91.3069 60.8528 91.1856 60.4235 90.9429 60.1248C90.7096 59.8261 90.3456 59.6768 89.8509 59.6768C89.5336 59.6768 89.2489 59.7515 88.9969 59.9008C88.7543 60.0501 88.5629 60.2648 88.4229 60.5448C88.2829 60.8155 88.2129 61.1468 88.2129 61.5388V65.3048H86.3229ZM100.464 65.3048V55.2248H102.354V65.3048H100.464ZM109.738 65.3048V58.2488H111.628V65.3048H109.738ZM110.69 57.2828C110.354 57.2828 110.074 57.1848 109.85 56.9888C109.635 56.7835 109.528 56.5268 109.528 56.2188C109.528 55.9108 109.635 55.6588 109.85 55.4628C110.074 55.2575 110.354 55.1548 110.69 55.1548C111.035 55.1548 111.315 55.2575 111.53 55.4628C111.754 55.6588 111.866 55.9108 111.866 56.2188C111.866 56.5268 111.754 56.7835 111.53 56.9888C111.315 57.1848 111.035 57.2828 110.69 57.2828ZM119.038 65.3048V58.2488H120.704L120.844 59.3968C121.058 59.0048 121.362 58.6875 121.754 58.4448C122.155 58.2021 122.631 58.0808 123.182 58.0808C123.77 58.0808 124.264 58.2021 124.666 58.4448C125.067 58.6875 125.37 59.0421 125.576 59.5088C125.79 59.9755 125.898 60.5495 125.898 61.2308V65.3048H124.022V61.4128C124.022 60.8528 123.9 60.4235 123.658 60.1248C123.424 59.8261 123.06 59.6768 122.566 59.6768C122.248 59.6768 121.964 59.7515 121.712 59.9008C121.469 60.0501 121.278 60.2648 121.138 60.5448C120.998 60.8155 120.928 61.1468 120.928 61.5388V65.3048H119.038ZM136.566 65.4728C135.857 65.4728 135.227 65.3235 134.676 65.0248C134.135 64.7168 133.71 64.2921 133.402 63.7508C133.104 63.2001 132.954 62.5655 132.954 61.8468C132.954 61.1095 133.104 60.4608 133.402 59.9008C133.71 59.3315 134.135 58.8881 134.676 58.5708C135.218 58.2441 135.848 58.0808 136.566 58.0808C137.266 58.0808 137.878 58.2348 138.4 58.5428C138.923 58.8508 139.329 59.2661 139.618 59.7888C139.908 60.3115 140.052 60.9041 140.052 61.5668C140.052 61.6601 140.052 61.7675 140.052 61.8888C140.052 62.0008 140.043 62.1175 140.024 62.2388H134.298V61.0908H138.148C138.12 60.6335 137.957 60.2741 137.658 60.0128C137.369 59.7515 137.005 59.6208 136.566 59.6208C136.249 59.6208 135.955 59.6955 135.684 59.8448C135.414 59.9848 135.199 60.2041 135.04 60.5028C134.891 60.8015 134.816 61.1795 134.816 61.6368V62.0428C134.816 62.4255 134.886 62.7615 135.026 63.0508C135.176 63.3308 135.381 63.5501 135.642 63.7088C135.904 63.8581 136.207 63.9328 136.552 63.9328C136.898 63.9328 137.182 63.8581 137.406 63.7088C137.64 63.5595 137.812 63.3681 137.924 63.1348H139.856C139.726 63.5735 139.506 63.9701 139.198 64.3248C138.89 64.6795 138.512 64.9595 138.064 65.1648C137.616 65.3701 137.117 65.4728 136.566 65.4728ZM158.933 68.5528C158.261 68.5528 157.673 68.4688 157.169 68.3008C156.665 68.1421 156.273 67.8948 155.993 67.5588C155.723 67.2321 155.587 66.8261 155.587 66.3408C155.587 66.0141 155.671 65.7061 155.839 65.4168C156.007 65.1275 156.25 64.8661 156.567 64.6328C156.894 64.3901 157.3 64.1848 157.785 64.0168L158.499 64.9408C158.07 65.0808 157.757 65.2535 157.561 65.4588C157.375 65.6735 157.281 65.9021 157.281 66.1448C157.281 66.3595 157.351 66.5415 157.491 66.6908C157.641 66.8401 157.837 66.9475 158.079 67.0128C158.331 67.0875 158.611 67.1248 158.919 67.1248C159.218 67.1248 159.475 67.0875 159.689 67.0128C159.913 66.9381 160.086 66.8261 160.207 66.6768C160.338 66.5368 160.403 66.3688 160.403 66.1728C160.403 65.9208 160.315 65.7155 160.137 65.5568C159.96 65.3981 159.605 65.3001 159.073 65.2628C158.597 65.2255 158.173 65.1741 157.799 65.1088C157.435 65.0341 157.113 64.9501 156.833 64.8568C156.553 64.7541 156.315 64.6421 156.119 64.5208C155.933 64.3995 155.779 64.2781 155.657 64.1568V63.8348L157.155 62.2248L158.513 62.6588L156.749 64.3948L157.281 63.4708C157.384 63.5268 157.482 63.5828 157.575 63.6388C157.678 63.6855 157.804 63.7321 157.953 63.7788C158.103 63.8161 158.299 63.8535 158.541 63.8908C158.784 63.9281 159.092 63.9608 159.465 63.9888C160.081 64.0448 160.585 64.1615 160.977 64.3388C161.379 64.5161 161.673 64.7541 161.859 65.0528C162.046 65.3421 162.139 65.7015 162.139 66.1308C162.139 66.5508 162.023 66.9428 161.789 67.3068C161.565 67.6801 161.215 67.9788 160.739 68.2028C160.263 68.4361 159.661 68.5528 158.933 68.5528ZM158.933 63.2188C158.345 63.2188 157.837 63.1068 157.407 62.8828C156.987 62.6495 156.661 62.3415 156.427 61.9588C156.203 61.5668 156.091 61.1328 156.091 60.6568C156.091 60.1808 156.203 59.7515 156.427 59.3688C156.661 58.9768 156.987 58.6641 157.407 58.4308C157.837 58.1975 158.345 58.0808 158.933 58.0808C159.531 58.0808 160.039 58.1975 160.459 58.4308C160.889 58.6641 161.215 58.9768 161.439 59.3688C161.663 59.7515 161.775 60.1808 161.775 60.6568C161.775 61.1328 161.663 61.5668 161.439 61.9588C161.215 62.3415 160.889 62.6495 160.459 62.8828C160.039 63.1068 159.531 63.2188 158.933 63.2188ZM158.933 61.7768C159.297 61.7768 159.591 61.6835 159.815 61.4968C160.039 61.3101 160.151 61.0348 160.151 60.6708C160.151 60.3068 160.039 60.0315 159.815 59.8448C159.591 59.6488 159.297 59.5508 158.933 59.5508C158.579 59.5508 158.285 59.6488 158.051 59.8448C157.827 60.0315 157.715 60.3068 157.715 60.6708C157.715 61.0348 157.827 61.3101 158.051 61.4968C158.285 61.6835 158.579 61.7768 158.933 61.7768ZM160.109 59.5928L159.801 58.2488H162.699V59.3688L160.109 59.5928ZM169.735 65.3048V58.2488H171.415L171.597 59.5508C171.765 59.2428 171.975 58.9815 172.227 58.7668C172.488 58.5521 172.782 58.3841 173.109 58.2628C173.445 58.1415 173.814 58.0808 174.215 58.0808V60.0828H173.571C173.291 60.0828 173.03 60.1155 172.787 60.1808C172.554 60.2461 172.348 60.3535 172.171 60.5028C171.994 60.6428 171.858 60.8388 171.765 61.0908C171.672 61.3428 171.625 61.6601 171.625 62.0428V65.3048H169.735ZM184.186 65.4728C183.514 65.4728 182.908 65.3188 182.366 65.0108C181.834 64.6935 181.41 64.2595 181.092 63.7088C180.784 63.1488 180.63 62.5095 180.63 61.7908C180.63 61.0535 180.784 60.4095 181.092 59.8588C181.41 59.2988 181.839 58.8648 182.38 58.5568C182.922 58.2395 183.528 58.0808 184.2 58.0808C184.882 58.0808 185.488 58.2395 186.02 58.5568C186.562 58.8648 186.986 59.2988 187.294 59.8588C187.612 60.4095 187.77 61.0488 187.77 61.7768C187.77 62.5048 187.612 63.1488 187.294 63.7088C186.986 64.2595 186.562 64.6935 186.02 65.0108C185.479 65.3188 184.868 65.4728 184.186 65.4728ZM184.186 63.8348C184.504 63.8348 184.784 63.7601 185.026 63.6108C185.278 63.4615 185.474 63.2328 185.614 62.9248C185.764 62.6168 185.838 62.2341 185.838 61.7768C185.838 61.3195 185.764 60.9415 185.614 60.6428C185.474 60.3348 185.278 60.1061 185.026 59.9568C184.784 59.7981 184.508 59.7188 184.2 59.7188C183.902 59.7188 183.626 59.7981 183.374 59.9568C183.122 60.1061 182.922 60.3348 182.772 60.6428C182.632 60.9415 182.562 61.3195 182.562 61.7768C182.562 62.2341 182.632 62.6168 182.772 62.9248C182.922 63.2328 183.118 63.4615 183.36 63.6108C183.612 63.7601 183.888 63.8348 184.186 63.8348ZM198.315 65.4728C197.606 65.4728 196.976 65.3141 196.425 64.9968C195.874 64.6795 195.445 64.2455 195.137 63.6948C194.829 63.1441 194.675 62.5141 194.675 61.8048C194.675 61.0768 194.829 60.4375 195.137 59.8868C195.445 59.3268 195.874 58.8881 196.425 58.5708C196.976 58.2441 197.606 58.0808 198.315 58.0808C199.22 58.0808 199.981 58.3188 200.597 58.7948C201.213 59.2708 201.605 59.9241 201.773 60.7548H199.771C199.687 60.4281 199.51 60.1715 199.239 59.9848C198.978 59.7981 198.665 59.7048 198.301 59.7048C197.974 59.7048 197.68 59.7888 197.419 59.9568C197.167 60.1155 196.966 60.3535 196.817 60.6708C196.677 60.9788 196.607 61.3475 196.607 61.7768C196.607 62.1035 196.649 62.3975 196.733 62.6588C196.817 62.9108 196.934 63.1301 197.083 63.3168C197.232 63.4941 197.41 63.6295 197.615 63.7228C197.83 63.8161 198.058 63.8628 198.301 63.8628C198.544 63.8628 198.763 63.8208 198.959 63.7368C199.164 63.6528 199.337 63.5361 199.477 63.3868C199.617 63.2281 199.715 63.0368 199.771 62.8128H201.773C201.605 63.6248 201.208 64.2735 200.583 64.7588C199.967 65.2348 199.211 65.4728 198.315 65.4728ZM212.291 65.4728C211.582 65.4728 210.952 65.3235 210.401 65.0248C209.86 64.7168 209.435 64.2921 209.127 63.7508C208.828 63.2001 208.679 62.5655 208.679 61.8468C208.679 61.1095 208.828 60.4608 209.127 59.9008C209.435 59.3315 209.86 58.8881 210.401 58.5708C210.942 58.2441 211.572 58.0808 212.291 58.0808C212.991 58.0808 213.602 58.2348 214.125 58.5428C214.648 58.8508 215.054 59.2661 215.343 59.7888C215.632 60.3115 215.777 60.9041 215.777 61.5668C215.777 61.6601 215.777 61.7675 215.777 61.8888C215.777 62.0008 215.768 62.1175 215.749 62.2388H210.023V61.0908H213.873C213.845 60.6335 213.682 60.2741 213.383 60.0128C213.094 59.7515 212.73 59.6208 212.291 59.6208C211.974 59.6208 211.68 59.6955 211.409 59.8448C211.138 59.9848 210.924 60.2041 210.765 60.5028C210.616 60.8015 210.541 61.1795 210.541 61.6368V62.0428C210.541 62.4255 210.611 62.7615 210.751 63.0508C210.9 63.3308 211.106 63.5501 211.367 63.7088C211.628 63.8581 211.932 63.9328 212.277 63.9328C212.622 63.9328 212.907 63.8581 213.131 63.7088C213.364 63.5595 213.537 63.3681 213.649 63.1348H215.581C215.45 63.5735 215.231 63.9701 214.923 64.3248C214.615 64.6795 214.237 64.9595 213.789 65.1648C213.341 65.3701 212.842 65.4728 212.291 65.4728ZM222.825 65.3048V58.2488H224.505L224.687 59.5508C224.855 59.2428 225.065 58.9815 225.317 58.7668C225.578 58.5521 225.872 58.3841 226.199 58.2628C226.535 58.1415 226.904 58.0808 227.305 58.0808V60.0828H226.661C226.381 60.0828 226.12 60.1155 225.877 60.1808C225.644 60.2461 225.438 60.3535 225.261 60.5028C225.084 60.6428 224.948 60.8388 224.855 61.0908C224.762 61.3428 224.715 61.6601 224.715 62.0428V65.3048H222.825ZM234.095 65.3048V58.2488H235.985V65.3048H234.095ZM235.047 57.2828C234.711 57.2828 234.431 57.1848 234.207 56.9888C233.993 56.7835 233.885 56.5268 233.885 56.2188C233.885 55.9108 233.993 55.6588 234.207 55.4628C234.431 55.2575 234.711 55.1548 235.047 55.1548C235.393 55.1548 235.673 55.2575 235.887 55.4628C236.111 55.6588 236.223 55.9108 236.223 56.2188C236.223 56.5268 236.111 56.7835 235.887 56.9888C235.673 57.1848 235.393 57.2828 235.047 57.2828ZM246.783 65.4728C246.074 65.4728 245.444 65.3235 244.893 65.0248C244.352 64.7168 243.927 64.2921 243.619 63.7508C243.321 63.2001 243.171 62.5655 243.171 61.8468C243.171 61.1095 243.321 60.4608 243.619 59.9008C243.927 59.3315 244.352 58.8881 244.893 58.5708C245.435 58.2441 246.065 58.0808 246.783 58.0808C247.483 58.0808 248.095 58.2348 248.617 58.5428C249.14 58.8508 249.546 59.2661 249.835 59.7888C250.125 60.3115 250.269 60.9041 250.269 61.5668C250.269 61.6601 250.269 61.7675 250.269 61.8888C250.269 62.0008 250.26 62.1175 250.241 62.2388H244.515V61.0908H248.365C248.337 60.6335 248.174 60.2741 247.875 60.0128C247.586 59.7515 247.222 59.6208 246.783 59.6208C246.466 59.6208 246.172 59.6955 245.901 59.8448C245.631 59.9848 245.416 60.2041 245.257 60.5028C245.108 60.8015 245.033 61.1795 245.033 61.6368V62.0428C245.033 62.4255 245.103 62.7615 245.243 63.0508C245.393 63.3308 245.598 63.5501 245.859 63.7088C246.121 63.8581 246.424 63.9328 246.769 63.9328C247.115 63.9328 247.399 63.8581 247.623 63.7088C247.857 63.5595 248.029 63.3681 248.141 63.1348H250.073C249.943 63.5735 249.723 63.9701 249.415 64.3248C249.107 64.6795 248.729 64.9595 248.281 65.1648C247.833 65.3701 247.334 65.4728 246.783 65.4728ZM260.399 65.3048C259.905 65.3048 259.471 65.2301 259.097 65.0808C258.733 64.9221 258.449 64.6655 258.243 64.3108C258.038 63.9468 257.935 63.4521 257.935 62.8268V59.8308H256.731V58.2488H257.935L258.145 56.3308H259.825V58.2488H261.687V59.8308H259.825V62.8548C259.825 63.1721 259.895 63.3915 260.035 63.5128C260.175 63.6341 260.413 63.6948 260.749 63.6948H261.673V65.3048H260.399Z" fill="white"/>
</svg>
